<svg xmlns="http://www.w3.org/2000/svg" viewBox="0 0 64 80" x="0px" y="0px">
    <path class="xpipe-sidebar-icon" fill="#616161" d="M60.08,11h-8A16.19,16.19,0,0,0,30,11H4.08a1,1,0,0,0-1,1V52a1,1,0,0,0,1,1h.15A4.87,4.87,0,0,0,8,61H8a4.84,4.84,0,0,0,3.12-1.15V60a1,1,0,0,0,1,1h40a1,1,0,0,0,1-1V56.09a1,1,0,0,0-1-1h-17V53h25a1,1,0,0,0,1-1V12A1,1,0,0,0,60.08,11Zm-9,1.77.11.11a11,11,0,0,1,1,1.08s.09.12.14.17c.25.33.5.65.72,1l0,0a14.39,14.39,0,0,1,0,15.71l0,0c-.22.34-.47.66-.72,1-.05.05-.09.12-.14.17a11,11,0,0,1-1,1.08,14.36,14.36,0,0,1-20.28,0,12.45,12.45,0,0,1-1-1.08,1.09,1.09,0,0,1-.13-.17c-.26-.33-.51-.65-.73-1l0,0a14.37,14.37,0,0,1,.81-16.82A.44.44,0,0,1,30,14a12.52,12.52,0,0,1,1-1.09l.08-.08.07-.06A14.23,14.23,0,0,1,41,8.66,14.4,14.4,0,0,1,51.09,12.77ZM5.08,13H28.15c-.15.2-.29.42-.44.63s-.24.32-.35.5-.37.6-.54.91c-.08.14-.17.28-.25.43a16.24,16.24,0,0,0-1.15,2.84l-.12.47c-.09.33-.17.67-.24,1s-.07.39-.1.59-.1.6-.13.91,0,.42,0,.63,0,.59,0,.88,0,.43,0,.65,0,.57,0,.86.05.44.07.66.07.57.12.85.08.43.13.65.13.56.2.84.12.42.19.63.18.55.28.83l.24.61c.12.28.25.55.38.82s.18.38.29.57.31.55.48.82.2.35.32.52.41.58.63.86.2.28.31.41q.51.62,1.08,1.2a16.26,16.26,0,0,0,6.86,4.09h0a16.94,16.94,0,0,0,2,.44,16.07,16.07,0,0,0,2.68.23,16.3,16.3,0,0,0,6.15-1.19c.34-.14.67-.3,1-.46.16-.07.31-.13.46-.21a16.44,16.44,0,0,0,4-2.91,15.8,15.8,0,0,0,1.11-1.23c.06-.07.1-.13.15-.2.29-.37.57-.74.83-1.13l0,0a16.24,16.24,0,0,0,2-13.62h0c-.15-.5-.32-1-.52-1.49h0A16.52,16.52,0,0,0,54,13h5.11V45.56h-33l5.61-5.35A1,1,0,0,0,32,39.5a1,1,0,0,0-.3-.72l-5.49-5.49a1,1,0,0,0-1.39,0L12,45.56H5.08ZM6.25,51H5.08V47.56H9.86l-2,1.94ZM8,59H8a2.89,2.89,0,0,1-2-4.91l1.43-1.36h0l2.15-2,16-15.27,4.08,4.07-6.68,6.36h0l-3.17,3L12.3,56l-.91.86s0,0,0,0L10,58.15A2.86,2.86,0,0,1,8,59Zm8.15-3.91L18.3,53H29.05v2.09Zm35,3.91h-38V58l.61-.59.33-.3H51.08Zm-18-3.91H31.05V53h2.06Zm26-4.09H20.4l.81-.77L24,47.56H59.08Z"/>
    <path class="xpipe-sidebar-icon" fill="#616161" d="M33,26.58l2.54,0v.8a5.64,5.64,0,0,0,.08.93l-2.67,1.09a1,1,0,0,0-.55,1.31,1,1,0,0,0,.93.62,1.06,1.06,0,0,0,.38-.07l2.6-1.07A5.62,5.62,0,0,0,41,33h.09A5.6,5.6,0,0,0,46,30.13l2.8,1.15a1,1,0,0,0,.37.07,1,1,0,0,0,.93-.62,1,1,0,0,0-.55-1.31l-2.9-1.18a5.83,5.83,0,0,0,.07-.84v-.8l2.78,0a1,1,0,0,0,0-2h0l-2.76,0v-.55a6.3,6.3,0,0,0,0-.75l2.88-1.18a1,1,0,1,0-.75-1.85L46.05,21.4a5.54,5.54,0,0,0-1.46-1.74,3.89,3.89,0,1,0-6.93,0,5.74,5.74,0,0,0-1.42,1.65l-2.55-1a1,1,0,0,0-1.31.55,1,1,0,0,0,.55,1.3l2.66,1.09a5.71,5.71,0,0,0-.07.84v.55l-2.52,0h0a1,1,0,0,0,0,2Zm4.54.82V24.05a3.59,3.59,0,0,1,2-3.22,3.73,3.73,0,0,1,.56-.2V30.82A3.59,3.59,0,0,1,37.52,27.4Zm7.21,0a3.59,3.59,0,0,1-2.67,3.46V20.59a3.32,3.32,0,0,1,.69.24h0a3.59,3.59,0,0,1,2,3.21ZM41.12,16.06A1.89,1.89,0,0,1,43,17.94a2,2,0,0,1-.16.78l-.17,0a4.7,4.7,0,0,0-.51-.12l-.28,0q-.36,0-.72-.06H41a4.6,4.6,0,0,0-.64.05l-.3,0a4.37,4.37,0,0,0-.49.12l-.18,0a2,2,0,0,1-.16-.78A1.88,1.88,0,0,1,41.12,16.06Z"/>
</svg>