<svg xmlns="http://www.w3.org/2000/svg" viewBox="0 0 304 304" width="128" height="128">
  <path
     fill="oklch(100% 0 0 / 75%)"
     d="m 204.1,272 c 1.20825,-5.91917 9.89572,-5.01313 9.89572,1 0,6.01313 -8.68747,6.91917 -9.89572,1 H 82 v -2 z m 57.8,-46 c -1.20825,5.91917 -9.89572,5.01313 -9.89572,-1 0,-6.01313 8.68747,-6.91917 9.89572,-1 H 304 v 2 z m 0,16 c -1.20825,5.91917 -9.89572,5.01313 -9.89572,-1 0,-6.01313 8.68747,-6.91917 9.89572,-1 H 304 v 2 z m 6.2,-114 c 1.20825,-5.91917 9.89572,-5.01313 9.89572,1 0,6.01313 -8.68747,6.91917 -9.89572,1 h -86.2 c -1.20825,5.91917 -9.89572,5.01313 -9.89572,-1 0,-6.01313 8.68747,-6.91917 9.89572,-1 z m -70.2,-14 c -1.20825,5.91917 -9.89572,5.01313 -9.89572,-1 0,-6.01313 8.68747,-6.91917 9.89572,-1 h 86.2 c 1.20825,-5.91917 9.89572,-5.01313 9.89572,1 0,6.01313 -8.68747,6.91917 -9.89572,1 z M 194,220.1 c 5.91917,1.20825 5.01313,9.89572 -1,9.89572 -6.01313,0 -6.91917,-8.68747 -1,-9.89572 v -54.2 c -5.91917,-1.20825 -5.01313,-9.89572 1,-9.89572 6.01313,0 6.91917,8.68747 1,9.89572 z M 242,21.9 V 80 h 62 v 2 H 240 V 21.9 c -5.91917,-1.208245 -5.01313,-9.895719 1,-9.895719 6.01313,0 6.91917,8.687474 1,9.895719 z m 16,16 V 64 h 46 v 2 H 256 V 37.9 c -5.91917,-1.208245 -5.01313,-9.895719 1,-9.895719 6.01313,0 6.91917,8.687474 1,9.895719 z m -128,96 V 208 h 16 v 12.1 c 5.91917,1.20825 5.01313,9.89572 -1,9.89572 -6.01313,0 -6.91917,-8.68747 -1,-9.89572 V 210 h -16 v -76.1 c -5.91917,-1.20825 -5.01313,-9.89572 1,-9.89572 6.01313,0 6.91917,8.68747 1,9.89572 z M 124.1,112 c 1.20825,-5.91917 9.89572,-5.01313 9.89572,1 0,6.01313 -8.68747,6.91917 -9.89572,1 H 114 v 48 H 85.9 c -1.208245,5.91917 -9.895719,5.01313 -9.895719,-1 0,-6.01313 8.687474,-6.91917 9.895719,-1 H 112 v -48 z m -6.2,130 c -1.20825,5.91917 -9.89572,5.01313 -9.89572,-1 0,-6.01313 8.68747,-6.91917 9.89572,-1 H 176 v -74.1 c -5.91917,-1.20825 -5.01313,-9.89572 1,-9.89572 6.01313,0 6.91917,8.68747 1,9.89572 V 242 Z m -16,-64 c -1.20825,5.91917 -9.895719,5.01313 -9.895719,-1 0,-6.01313 8.687469,-6.91917 9.895719,-1 H 114 v 48 h 10.1 c 1.20825,-5.91917 9.89572,-5.01313 9.89572,1 0,6.01313 -8.68747,6.91917 -9.89572,1 H 112 V 178 Z M 66,284.1 c 5.919168,1.20825 5.013134,9.89572 -1,9.89572 -6.013134,0 -6.919168,-8.68747 -1,-9.89572 V 274 H 50 v 30 H 48 V 272 H 66 Z M 236.1,176 c 1.20825,-5.91917 9.89572,-5.01313 9.89572,1 0,6.01313 -8.68747,6.91917 -9.89572,1 H 226 v 94 h 48 v 32 h -2 v -30 h -48 v -98 z m 25.8,-30 c -1.20825,5.91917 -9.89572,5.01313 -9.89572,-1 0,-6.01313 8.68747,-6.91917 9.89572,-1 H 274 v 44.1 c 5.91917,1.20825 5.01313,9.89572 -1,9.89572 -6.01313,0 -6.91917,-8.68747 -1,-9.89572 V 146 Z m -64,96 c -1.20825,5.91917 -9.89572,5.01313 -9.89572,-1 0,-6.01313 8.68747,-6.91917 9.89572,-1 H 208 v -80 h 16 v -14 h -42.1 c -1.20825,5.91917 -9.89572,5.01313 -9.89572,-1 0,-6.01313 8.68747,-6.91917 9.89572,-1 H 226 v 18 h -16 v 80 z m 22.2,46 c 1.20825,-5.91917 9.89572,-5.01313 9.89572,1 0,6.01313 -8.68747,6.91917 -9.89572,1 H 98 v 14 H 96 V 288 Z M 242,149.9 V 160 h 16 v 34 h -16 v 62 h 48 v 48 h -2 v -46 h -48 v -66 h 16 v -30 h -16 v -12.1 c -5.91917,-1.20825 -5.01313,-9.89572 1,-9.89572 6.01313,0 6.91917,8.68747 1,9.89572 z M 117.9,98 c -1.20825,5.91917 -9.89572,5.01313 -9.89572,-1 0,-6.013134 8.68747,-6.919168 9.89572,-1 H 137 l 32,-32 h 39 V 21.9 c -5.91917,-1.208245 -5.01313,-9.895719 1,-9.895719 6.01313,0 6.91917,8.687474 1,9.895719 V 66 h -40.17 l -32,32 z m 28.1,90.1 c 5.91917,1.20825 5.01313,9.89572 -1,9.89572 -6.01313,0 -6.91917,-8.68747 -1,-9.89572 V 111.59 L 175.59,80 H 224 V 21.9 c -5.91917,-1.208245 -5.01313,-9.895719 1,-9.895719 6.01313,0 6.91917,8.687474 1,9.895719 V 82 H 176.41 L 146,112.41 Z m 16,32 c 5.91917,1.20825 5.01313,9.89572 -1,9.89572 -6.01313,0 -6.91917,-8.68747 -1,-9.89572 V 120.59 L 184.59,96 H 300.1 c 0.4006,-1.964289 1.93571,-3.499395 3.9,-3.9 v 2.07 c -2.67261,0.940174 -2.67261,4.719826 0,5.66 v 2.07 c -1.96429,-0.4006 -3.4994,-1.935711 -3.9,-3.9 H 185.41 L 162,121.41 Z M 277.9,50 c -1.20825,5.919168 -9.89572,5.013134 -9.89572,-1 0,-6.013134 8.68747,-6.919168 9.89572,-1 h 18.69 L 304,40.59 v 2.82 L 297.41,50 Z m -16,160 c -1.20825,5.91917 -9.89572,5.01313 -9.89572,-1 0,-6.01313 8.68747,-6.91917 9.89572,-1 H 288 v -71.41 l 16,-16 v 2.82 l -14,14 V 210 Z m -208,32 c -1.208245,5.91917 -9.895719,5.01313 -9.895719,-1 0,-6.01313 8.687474,-6.91917 9.895719,-1 H 64 V 217.41 L 40.59,194 H 21.9 c -1.208245,5.91917 -9.895719,5.01313 -9.895719,-1 0,-6.01313 8.687474,-6.91917 9.895719,-1 H 41.41 L 66,216.59 V 242 Z m 150.2,14 c 1.20825,-5.91917 9.89572,-5.01313 9.89572,1 0,6.01313 -8.68747,6.91917 -9.89572,1 H 96 V 201.4 L 56.6,162 H 37.9 c -1.208245,5.91917 -9.895719,5.01313 -9.895719,-1 0,-6.01313 8.687474,-6.91917 9.895719,-1 H 57.4 L 98,200.6 V 256 Z m -150.2,2 c -1.208245,5.91917 -9.895719,5.01313 -9.895719,-1 0,-6.01313 8.687474,-6.91917 9.895719,-1 H 80 V 209.41 L 48.59,178 H 21.9 c -1.208245,5.91917 -9.895719,5.01313 -9.895719,-1 0,-6.01313 8.687474,-6.91917 9.895719,-1 H 49.41 L 82,208.59 V 258 Z M 258,289 v 15 h -2 v -14 h -14 v 14 h -2 v -16 h 18 z M 80,272 h 2 v 32 h -2 z m 33,-172 c 4,0 4,-6 0,-6 -4,0 -4,6 0,6 z m 16,16 c 4,0 4,-6 0,-6 -4,0 -4,6 0,6 z m 0,16 c 4,0 4,-6 0,-6 -4,0 -4,6 0,6 z m -48,32 c 3.999998,0 3.999998,-6 0,-6 -3.999998,0 -3.999998,6 0,6 z m 16,16 c 4,0 4,-6 0,-6 -3.999998,0 -3.999998,6 0,6 z m 32,48 c 4,0 4,-6 0,-6 -4,0 -4,6 0,6 z m -16,16 c 4,0 4,-6 0,-6 -4,0 -4,6 0,6 z m 32,-16 c 4,0 4,-6 0,-6 -4,0 -4,6 0,6 z m 0,-32 c 4,0 4,-6 0,-6 -4,0 -4,6 0,6 z m 16,32 c 4,0 4,-6 0,-6 -4,0 -4,6 0,6 z m 32,16 c 4,0 4,-6 0,-6 -4,0 -4,6 0,6 z m 0,-16 c 4,0 4,-6 0,-6 -4,0 -4,6 0,6 z m -16,-64 c 4,0 4,-6 0,-6 -4,0 -4,6 0,6 z m 16,0 c 4,0 4,-6 0,-6 -4,0 -4,6 0,6 z m 16,96 c 4,0 4,-6 0,-6 -4,0 -4,6 0,6 z m 0,16 c 4,0 4,-6 0,-6 -4,0 -4,6 0,6 z m 16,16 c 4,0 4,-6 0,-6 -4,0 -4,6 0,6 z m 16,-144 c 4,0 4,-6 0,-6 -4,0 -4,6 0,6 z m 0,32 c 4,0 4,-6 0,-6 -4,0 -4,6 0,6 z m 16,-32 c 4,0 4,-6 0,-6 -4,0 -4,6 0,6 z m 16,-16 c 4,0 4,-6 0,-6 -4,0 -4,6 0,6 z m -96,0 c 4,0 4,-6 0,-6 -4,0 -4,6 0,6 z m 0,16 c 4,0 4,-6 0,-6 -4,0 -4,6 0,6 z m 16,-32 c 4,0 4,-6 0,-6 -4,0 -4,6 0,6 z m 96,0 c 4,0 4,-6 0,-6 -4,0 -4,6 0,6 z M 273,52 c 4,0 4,-6 0,-6 -4,0 -4,6 0,6 z M 257,36 c 4,0 4,-6 0,-6 -4,0 -4,6 0,6 z M 241,20 c 4,0 4,-6 0,-6 -4,0 -4,6 0,6 z m -16,0 c 4,0 4,-6 0,-6 -4,0 -4,6 0,6 z m -16,0 c 4,0 4,-6 0,-6 -4,0 -4,6 0,6 z M 49,260 c 3.999998,0 3.999998,-6 0,-6 -3.999998,0 -3.999998,6 0,6 z m 16,32 c 3.999998,0 3.999998,-6 0,-6 -3.999998,0 -3.999998,6 0,6 z M 49,244 c 3.999998,0 3.999998,-6 0,-6 -3.999998,0 -3.999998,6 0,6 z m 224,-48 c 4,0 4,-6 0,-6 -4,0 -4,6 0,6 z m -16,16 c 4,0 4,-6 0,-6 -4,0 -4,6 0,6 z m 0,16 c 4,0 4,-6 0,-6 -4,0 -4,6 0,6 z m 0,16 c 4,0 4,-6 0,-6 -4,0 -4,6 0,6 z M 17,180 c 3.999998,0 3.999998,-6 0,-6 -3.999998,0 -3.999998,6 0,6 z m 0,16 c 3.999998,0 3.999998,-6 0,-6 -3.999998,0 -3.999998,6 0,6 z m 16,-32 c 3.999998,0 3.999998,-6 0,-6 -3.999998,0 -3.999998,6 0,6 z" />
</svg>
