<svg height='100px' width='100px' class="jp-icon3"  fill="#616161" xmlns="http://www.w3.org/2000/svg" xmlns:xlink="http://www.w3.org/1999/xlink" version="1.1" x="0px" y="0px" 
     viewBox="0 0 100 100" enable-background="new 0 0 100 100" xml:space="preserve">
    <path d="M87,15H13c-3.314,0-6,2.686-6,6v58c0,3.314,2.686,6,6,6h74c3.314,0,6-2.686,6-6V21C93,17.686,90.314,15,87,15z M80,19  c1.657,0,3,1.343,3,3s-1.343,3-3,3s-3-1.343-3-3S78.343,19,80,19z M68,19c1.657,0,3,1.343,3,3s-1.343,3-3,3s-3-1.343-3-3  S66.343,19,68,19z M56,19c1.657,0,3,1.343,3,3s-1.343,3-3,3s-3-1.343-3-3S54.343,19,56,19z M87,78c0,0.552-0.448,1-1,1H14  c-0.552,0-1-0.448-1-1V30c0-0.552,0.448-1,1-1h72c0.552,0,1,0.448,1,1V78z"></path>
    <path d="M71,56h-5.678c-0.249,0-0.454-0.186-0.488-0.433c-0.142-1.026-0.374-2.016-0.693-2.961  c-0.076-0.225,0.012-0.469,0.218-0.587l4.828-2.787c2.293-1.324,0.288-4.785-2-3.464l-4.69,2.708  c-0.215,0.124-0.484,0.067-0.637-0.129c-0.993-1.267-2.208-2.356-3.632-3.213c-0.141-0.085-0.227-0.234-0.232-0.398  c-0.041-1.252-0.375-2.428-0.929-3.47c-0.103-0.195-0.075-0.43,0.081-0.585l2.266-2.266c1.869-1.869-0.958-4.699-2.828-2.828  l-2.267,2.267c-0.155,0.155-0.391,0.183-0.586,0.08c-2.344-1.244-5.123-1.244-7.467,0c-0.194,0.103-0.43,0.075-0.586-0.08  l-2.267-2.267c-1.869-1.869-4.699,0.958-2.828,2.828l2.266,2.266c0.156,0.156,0.184,0.391,0.081,0.585  c-0.553,1.042-0.887,2.218-0.929,3.47c-0.005,0.164-0.091,0.314-0.232,0.398c-1.425,0.857-2.64,1.946-3.632,3.213  c-0.153,0.196-0.422,0.253-0.637,0.129l-4.69-2.708c-2.288-1.321-4.292,2.141-2,3.464l4.828,2.787  c0.206,0.119,0.294,0.363,0.218,0.587c-0.319,0.944-0.552,1.935-0.693,2.961C35.132,55.814,34.927,56,34.678,56H29  c-2.643,0-2.646,4,0,4h5.724c0.245,0,0.447,0.179,0.486,0.421c0.161,0.998,0.415,1.964,0.763,2.886c0.086,0.228,0,0.482-0.211,0.604  l-4.948,2.857c-2.289,1.321-0.291,4.787,2,3.464l4.958-2.863c0.211-0.122,0.475-0.069,0.63,0.12C41.152,70.848,45.32,73,50,73  s8.848-2.152,11.598-5.511c0.155-0.189,0.418-0.242,0.63-0.12l4.958,2.863c2.289,1.321,4.291-2.141,2-3.464l-4.948-2.857  c-0.211-0.122-0.298-0.376-0.211-0.604c0.347-0.922,0.602-1.888,0.763-2.886C64.828,60.179,65.031,60,65.276,60H71  C73.643,60,73.646,56,71,56z M44,66c-1.657,0-3-1.343-3-3s1.343-3,3-3s3,1.343,3,3S45.657,66,44,66z M44,56c-1.657,0-3-1.343-3-3  s1.343-3,3-3s3,1.343,3,3S45.657,56,44,56z M56,66c-1.657,0-3-1.343-3-3s1.343-3,3-3s3,1.343,3,3S57.657,66,56,66z M56,56  c-1.657,0-3-1.343-3-3s1.343-3,3-3s3,1.343,3,3S57.657,56,56,56z"></path>
</svg>