<!DOCTYPE svg PUBLIC "-//W3C//DTD SVG 1.1//EN" "http://www.w3.org/Graphics/SVG/1.1/DTD/svg11.dtd">
<!-- Uploaded to: SVG Repo, www.svgrepo.com, Transformed by: SVG Repo Mixer Tools -->
<svg version="1.0" id="Layer_1" xmlns="http://www.w3.org/2000/svg" xmlns:xlink="http://www.w3.org/1999/xlink" width="800px" height="800px" viewBox="-8.32 -8.32 80.64 80.64" enable-background="new 0 0 64 64" xml:space="preserve" fill="#000000" transform="rotate(0)">
<g id="SVGRepo_bgCarrier" stroke-width="0"/>
<g id="SVGRepo_tracerCarrier" stroke-linecap="round" stroke-linejoin="round"/>
<g id="SVGRepo_iconCarrier"> <g> <path fill="#394240" d="M61.984,32.527L47.379,24.18C47.742,22.84,48,21.457,48,20c0-8.836-7.164-16-16-16s-16,7.164-16,16 c0,3.672,1.289,7.016,3.371,9.719L0.844,53.543c-1.359,1.746-1.043,4.258,0.699,5.613C2.273,59.727,3.141,60,3.996,60 c1.191,0,2.371-0.531,3.16-1.543L25.652,34.68C27.602,35.523,29.742,36,32,36c4.496,0,8.543-1.867,11.449-4.852l14.566,8.324 c1.918,1.102,4.359,0.426,5.457-1.488C64.572,36.066,63.902,33.625,61.984,32.527z M32,28c-4.418,0-8-3.582-8-8s3.582-8,8-8 s8,3.582,8,8S36.418,28,32,28z"/> <path fill="#ffffff" d="M40,20.008c0-4.422-3.582-8-8-8s-8,3.578-8,8c0,4.414,3.582,8,8,8S40,24.422,40,20.008z"/> </g> </g>
</svg>