
<svg viewBox="0 0 512 512"  xmlns="http://www.w3.org/2000/svg"> 
    <g class="jp-icon3" fill="#616161">
        <path d="m426.67 426.67v-213.34c0-23.465-19.199-42.668-42.668-42.668l-256 0.003907c-23.465 0-42.668 19.199-42.668 42.668v213.33c0 23.465 19.199 42.668 42.668 42.668h256c23.465-0.003907 42.668-19.203 42.668-42.668zm-128-106.67c0 23.465-19.199 42.668-42.668 42.668-23.465 0-42.668-19.199-42.668-42.668 0-23.465 19.199-42.668 42.668-42.668 23.465 0 42.668 19.203 42.668 42.668z"/>
        <path transform="scale(21.333)" d="m17 12v-5.0001c0-2.8-2.2-5.0001-5.0001-5.0001-2.8 1.83e-4 -5.0001 2.2002-5.0001 5.0001v5.0001" fill="none" stroke="#616161" stroke-miterlimit="10" stroke-width="2"/>
    </g>
</svg>
