<!DOCTYPE svg PUBLIC "-//W3C//DTD SVG 1.1//EN" "http://www.w3.org/Graphics/SVG/1.1/DTD/svg11.dtd">
<!-- Uploaded to: SVG Repo, www.svgrepo.com, Transformed by: SVG Repo Mixer Tools -->
<svg fill="#646464" height="175px" width="175px" version="1.1" id="Layer_1" xmlns="http://www.w3.org/2000/svg" xmlns:xlink="http://www.w3.org/1999/xlink" viewBox="-51.2 -51.2 614.40 614.40" xml:space="preserve" stroke="#646464" stroke-width="0.00512">
<g id="SVGRepo_bgCarrier" stroke-width="0"/>
<g id="SVGRepo_tracerCarrier" stroke-linecap="round" stroke-linejoin="round"/>
<g id="SVGRepo_iconCarrier"> <g> <g> <path d="M422.957,478.609h-16.696v-50.087c0-72.583-59.046-121.466-121.703-166.956c62.642-45.478,121.703-94.366,121.703-166.957 V33.391h16.696c9.217,0,16.696-7.473,16.696-16.696C439.652,7.473,432.174,0,422.957,0C414.155,0,98.294,0,89.044,0 c-9.217,0-16.696,7.473-16.696,16.696c0,9.223,7.479,16.696,16.696,16.696h16.696v61.217c0,72.592,59.063,121.481,121.707,166.959 c-62.647,45.478-121.707,94.365-121.707,166.954v50.087H89.044c-9.217,0-16.696,7.473-16.696,16.696 c0,9.223,7.479,16.696,16.696,16.696c11.105,0,320.455,0,333.913,0c9.217,0,16.696-7.473,16.696-16.696 C439.652,486.082,432.174,478.609,422.957,478.609z M222.609,139.132c-6.446,0-12.326-3.718-15.087-9.543 c-2.76-5.831-1.924-12.733,2.163-17.723l50.087-61.217c5.848-7.141,16.348-8.19,23.5-2.353c7.13,5.842,8.185,16.358,2.347,23.494 l-27.782,33.951h42.685c6.446,0,12.326,3.718,15.087,9.543c2.76,5.831,1.924,12.733-2.163,17.723l-50.087,61.217 c-3.305,4.038-8.097,6.125-12.935,6.125c-3.718,0-7.456-1.233-10.565-3.772c-7.13-5.842-8.185-16.358-2.347-23.494l27.783-33.951 H222.609z M339.478,478.609H172.522v-11.13c0-36.397,35.25-68.359,73.337-97.478c6-4.576,14.283-4.576,20.283,0 c38.086,29.119,73.336,61.082,73.336,97.478V478.609z"/> </g> </g> </g>
</svg>