<?xml version="1.0" encoding="UTF-8"?>
<svg class="jp-icon3" fill="#616161" version="1.1" viewBox="0 -55 1350 1350" xmlns="http://www.w3.org/2000/svg">
 <path d="m610.36 114.64c19.523 19.527 19.523 51.184 0 70.711l-64.645 64.645h79.289c232.61 0 425 192.39 425 425s-192.39 425-425 425-425-192.39-425-425c0-27.613 22.387-50 50-50s50 22.387 50 50c0 177.39 147.61 325 325 325s325-147.61 325-325-147.61-325-325-325h-79.289l64.645 64.645c19.523 19.527 19.523 51.184 0 70.711-19.527 19.523-51.184 19.523-70.711 0l-150-150c-19.527-19.527-19.527-51.184 0-70.711l150-150c19.527-19.527 51.184-19.527 70.711 0z"/>
</svg>
