<?xml version="1.0" encoding="utf-8"?>
<!-- Generator: Adobe Illustrator 25.0.1, SVG Export Plug-In . SVG Version: 6.00 Build 0)  -->
<svg version="1.1" id="Layer_1" xmlns="http://www.w3.org/2000/svg" xmlns:xlink="http://www.w3.org/1999/xlink" x="0px" y="0px"
	 viewBox="0 0 270 250" style="enable-background:new 0 0 270 250;" xml:space="preserve">
<style type="text/css">
	.st0{fill:#3EA5BD;}
	.st1{fill:#324057;}
</style>
<g>
	<g>
		<g>
			<path class="st0" d="M27.6,5.6c-7.2,0-13,5.8-13,13s5.8,13,13,13s13-5.8,13-13S34.7,5.6,27.6,5.6z"/>
			<path class="st0" d="M63,5.6c-7.2,0-13,5.8-13,13s5.8,13,13,13s13-5.8,13-13S70.2,5.6,63,5.6z"/>
			<path class="st0" d="M27.6,41c-7.2,0-13,5.8-13,13s5.8,13,13,13s13-5.8,13-13S34.7,41,27.6,41z"/>
			<path class="st0" d="M63,41c-7.2,0-13,5.8-13,13s5.8,13,13,13s13-5.8,13-13S70.2,41,63,41z"/>
			<path class="st0" d="M27.6,76.5c-7.2,0-13,5.8-13,13s5.8,13,13,13s13-5.8,13-13C40.5,82.3,34.7,76.5,27.6,76.5z"/>
			<path class="st0" d="M63,76.5c-7.2,0-13,5.8-13,13s5.8,13,13,13s13-5.8,13-13C76,82.3,70.2,76.5,63,76.5z"/>
			<path class="st0" d="M63,112c-7.2,0-13,5.8-13,13c0,7.2,5.8,13,13,13s13-5.8,13-13S70.2,112,63,112z"/>
			<path class="st0" d="M27.6,147.5c-7.2,0-13,5.8-13,13s5.8,13,13,13s13-5.8,13-13C40.5,153.3,34.7,147.5,27.6,147.5z"/>
			<path class="st0" d="M63,147.5c-7.2,0-13,5.8-13,13s5.8,13,13,13s13-5.8,13-13C76,153.3,70.2,147.5,63,147.5z"/>
			<path class="st0" d="M27.6,183c-7.2,0-13,5.8-13,13s5.8,13,13,13s13-5.8,13-13S34.7,183,27.6,183z"/>
			<path class="st0" d="M63,183c-7.2,0-13,5.8-13,13s5.8,13,13,13s13-5.8,13-13S70.2,183,63,183z"/>
			<path class="st0" d="M27.6,218.5c-7.2,0-13,5.8-13,13s5.8,13,13,13s13-5.8,13-13S34.7,218.5,27.6,218.5z"/>
			<path class="st0" d="M63,218.5c-7.2,0-13,5.8-13,13s5.8,13,13,13s13-5.8,13-13S70.2,218.5,63,218.5z"/>
			<path class="st0" d="M98.5,41c-7.2,0-13,5.8-13,13s5.8,13,13,13s13-5.8,13-13C111.5,46.9,105.7,41,98.5,41z"/>
			<path class="st0" d="M98.5,76.5c-7.2,0-13,5.8-13,13s5.8,13,13,13s13-5.8,13-13C111.5,82.3,105.7,76.5,98.5,76.5z"/>
			<path class="st0" d="M98.5,147.5c-7.2,0-13,5.8-13,13s5.8,13,13,13s13-5.8,13-13C111.5,153.3,105.7,147.5,98.5,147.5z"/>
			<path class="st0" d="M98.5,183c-7.2,0-13,5.8-13,13s5.8,13,13,13s13-5.8,13-13C111.5,188.8,105.7,183,98.5,183z"/>
		</g>
		<g>
			<path class="st1" d="M240.5,244.4c7.2,0,13-5.8,13-13s-5.8-13-13-13s-13,5.8-13,13S233.3,244.4,240.5,244.4z"/>
			<path class="st1" d="M205,244.4c7.2,0,13-5.8,13-13s-5.8-13-13-13s-13,5.8-13,13S197.8,244.4,205,244.4z"/>
			<path class="st1" d="M240.5,208.9c7.2,0,13-5.8,13-13s-5.8-13-13-13s-13,5.8-13,13S233.3,208.9,240.5,208.9z"/>
			<path class="st1" d="M205,208.9c7.2,0,13-5.8,13-13s-5.8-13-13-13s-13,5.8-13,13C192,203.1,197.8,208.9,205,208.9z"/>
			<path class="st1" d="M240.5,173.5c7.2,0,13-5.8,13-13s-5.8-13-13-13s-13,5.8-13,13C227.5,167.6,233.3,173.5,240.5,173.5z"/>
			<path class="st1" d="M205,173.5c7.2,0,13-5.8,13-13s-5.8-13-13-13s-13,5.8-13,13C192,167.6,197.8,173.5,205,173.5z"/>
			<path class="st1" d="M205,138c7.2,0,13-5.8,13-13s-5.8-13-13-13s-13,5.8-13,13C192,132.2,197.8,138,205,138z"/>
			<path class="st1" d="M240.5,102.5c7.2,0,13-5.8,13-13c0-7.2-5.8-13-13-13s-13,5.8-13,13C227.5,96.7,233.3,102.5,240.5,102.5z"/>
			<path class="st1" d="M205,102.5c7.2,0,13-5.8,13-13c0-7.2-5.8-13-13-13s-13,5.8-13,13C192,96.7,197.8,102.5,205,102.5z"/>
			<path class="st1" d="M240.5,67c7.2,0,13-5.8,13-13s-5.8-13-13-13s-13,5.8-13,13S233.3,67,240.5,67z"/>
			<path class="st1" d="M205,67c7.2,0,13-5.8,13-13s-5.8-13-13-13s-13,5.8-13,13C192,61.2,197.8,67,205,67z"/>
			<path class="st1" d="M240.5,31.5c7.2,0,13-5.8,13-13s-5.8-13-13-13s-13,5.8-13,13S233.3,31.5,240.5,31.5z"/>
			<path class="st1" d="M205,31.5c7.2,0,13-5.8,13-13s-5.8-13-13-13s-13,5.8-13,13S197.8,31.5,205,31.5z"/>
			<path class="st1" d="M169.5,208.9c7.2,0,13-5.8,13-13s-5.8-13-13-13s-13,5.8-13,13S162.3,208.9,169.5,208.9z"/>
			<path class="st1" d="M169.5,173.5c7.2,0,13-5.8,13-13s-5.8-13-13-13s-13,5.8-13,13C156.5,167.6,162.3,173.5,169.5,173.5z"/>
			<path class="st1" d="M169.5,138c7.2,0,13-5.8,13-13s-5.8-13-13-13s-13,5.8-13,13S162.3,138,169.5,138z"/>
			<path class="st1" d="M169.5,102.5c7.2,0,13-5.8,13-13c0-7.2-5.8-13-13-13s-13,5.8-13,13C156.5,96.7,162.3,102.5,169.5,102.5z"/>
			<path class="st1" d="M169.5,67c7.2,0,13-5.8,13-13s-5.8-13-13-13s-13,5.8-13,13S162.3,67,169.5,67z"/>
			<path class="st1" d="M134,173.5c7.2,0,13-5.8,13-13s-5.8-13-13-13s-13,5.8-13,13C121,167.6,126.8,173.5,134,173.5z"/>
			<path class="st1" d="M134,138c7.2,0,13-5.8,13-13s-5.8-13-13-13s-13,5.8-13,13C121,132.2,126.8,138,134,138z"/>
			<path class="st1" d="M134,102.5c7.2,0,13-5.8,13-13c0-7.2-5.8-13-13-13s-13,5.8-13,13C121,96.7,126.8,102.5,134,102.5z"/>
			<path class="st1" d="M98.5,138c7.2,0,13-5.8,13-13s-5.8-13-13-13s-13,5.8-13,13C85.6,132.2,91.4,138,98.5,138z"/>
		</g>
	</g>
</g>
</svg>
